<svg xmlns="http://www.w3.org/2000/svg" viewBox="0 0 1000 700">
<defs>
 <linearGradient id="bg" x1="0" y1="0" x2="1" y2="1"><stop stop-color="#2b1119"/><stop offset=".55" stop-color="#5b202d"/><stop offset="1" stop-color="#18372b"/></linearGradient>
 <radialGradient id="glow"><stop stop-color="#efd58a" stop-opacity=".34"/><stop offset="1" stop-color="#efd58a" stop-opacity="0"/></radialGradient>
 <linearGradient id="gold" x1="0" y1="0" x2="1" y2="1"><stop stop-color="#fff0b0"/><stop offset=".45" stop-color="#c89b3c"/><stop offset="1" stop-color="#8e5e18"/></linearGradient>
 <filter id="shadow"><feDropShadow dx="0" dy="18" stdDeviation="18" flood-color="#090606" flood-opacity=".45"/></filter>
 <pattern id="paisley" width="90" height="90" patternUnits="userSpaceOnUse"><path d="M45 8c12 18 30 27 30 45S57 84 45 82 15 71 15 53 33 26 45 8Z" fill="none" stroke="#efd58a" stroke-opacity=".08" stroke-width="2"/></pattern>
</defs>
<rect width="1000" height="700" fill="url(#bg)"/>
<circle cx="160" cy="120" r="250" fill="url(#glow)"/><circle cx="850" cy="610" r="300" fill="url(#glow)"/>
<rect x="26" y="26" width="948" height="648" rx="34" fill="url(#paisley)" stroke="#d2ad5b" stroke-opacity=".5"/>
<path d="M78 602Q500 70 922 602" fill="none" stroke="#efd58a" stroke-opacity=".16" stroke-width="2"/>
<text x="70" y="92" fill="#f4dda0" font-family="Georgia,serif" font-size="17" letter-spacing="5">NAADHYA BY KAVERI</text>
<text x="70" y="135" fill="#fff8e7" font-family="Georgia,serif" font-size="40" font-weight="700">Carnatic Mridangam</text>
<text x="70" y="166" fill="#ddcda9" font-family="Arial,sans-serif" font-size="15" letter-spacing="2">TALA · LAYA · RHYTHM</text>
<g transform="rotate(-8 500 390)"><path d="M280 300Q500 225 720 300L665 475Q500 555 335 475Z" fill="#a96735" stroke="url(#gold)" stroke-width="9"/><ellipse cx="300" cy="387" rx="55" ry="95" fill="#efe0bc" stroke="#c89b3c" stroke-width="8"/><ellipse cx="700" cy="387" rx="55" ry="95" fill="#efe0bc" stroke="#c89b3c" stroke-width="8"/><ellipse cx="300" cy="387" rx="31" ry="60" fill="#35201c"/><ellipse cx="700" cy="387" rx="31" ry="60" fill="#35201c"/><path d="M330 292L335 480M390 274L395 500M450 258L455 516M550 258L545 516M610 274L605 500M670 292L665 480" stroke="#f0d48b" stroke-width="5" opacity=".75"/><text x="500" y="585" text-anchor="middle" fill="#fff5d7" font-family="Georgia" font-size="24">Konnakol • Tala • Laya</text></g>
<g transform="translate(900 610)"><circle r="31" fill="#fff8e7" fill-opacity=".06" stroke="#d2ad5b"/><text y="8" text-anchor="middle" fill="#efd58a" font-family="Georgia" font-size="24">♫</text></g>
</svg>